<svg width="36" height="36" viewBox="0 0 36 36" fill="none" xmlns="http://www.w3.org/2000/svg">
<g id="Frame 96">
<g id="Vector">
<path d="M14.6461 0.118877C11.6553 0.722665 9.08776 1.92219 6.68547 3.83821C6.08489 4.32124 4.66609 5.72203 4.16226 6.32984C1.88492 9.09519 0.522543 12.2953 0.0952897 15.8979C0.00258381 16.6466 -0.0296617 18.3935 0.0307986 19.1865C0.091259 19.9553 0.204118 20.8087 0.341162 21.4688C0.44596 21.9841 0.716016 23.0548 0.812752 23.3245L0.869182 23.4814L0.933673 23.3848C1.11102 23.1071 15.4321 0.0262958 15.4321 0.01422C15.4321 -0.0220073 15.1701 0.010195 14.6461 0.118877Z" fill="#0F0F0F"/>
<path d="M14.6461 0.118877C11.6553 0.722665 9.08776 1.92219 6.68547 3.83821C6.08489 4.32124 4.66609 5.72203 4.16226 6.32984C1.88492 9.09519 0.522543 12.2953 0.0952897 15.8979C0.00258381 16.6466 -0.0296617 18.3935 0.0307986 19.1865C0.091259 19.9553 0.204118 20.8087 0.341162 21.4688C0.44596 21.9841 0.716016 23.0548 0.812752 23.3245L0.869182 23.4814L0.933673 23.3848C1.11102 23.1071 15.4321 0.0262958 15.4321 0.01422C15.4321 -0.0220073 15.1701 0.010195 14.6461 0.118877Z" fill="white"/>
</g>
<g id="Vector_2">
<path d="M6.49185 30.4693C6.19761 30.9362 5.96786 31.3347 5.97995 31.3549C5.99204 31.375 6.20567 31.5601 6.45557 31.7695C8.5999 33.5607 11.0304 34.8005 13.7229 35.4767C15.2626 35.8591 16.4235 36 18.1123 36C20.2567 36 21.9173 35.7343 23.9085 35.0742C24.5574 34.8568 24.7025 34.7964 24.6864 34.7401C24.6743 34.7039 24.372 33.5406 24.0133 32.1478L23.3603 29.624H15.1941H7.02793L6.49185 30.4693Z" fill="#0F0F0F"/>
<path d="M6.49185 30.4693C6.19761 30.9362 5.96786 31.3347 5.97995 31.3549C5.99204 31.375 6.20567 31.5601 6.45557 31.7695C8.5999 33.5607 11.0304 34.8005 13.7229 35.4767C15.2626 35.8591 16.4235 36 18.1123 36C20.2567 36 21.9173 35.7343 23.9085 35.0742C24.5574 34.8568 24.7025 34.7964 24.6864 34.7401C24.6743 34.7039 24.372 33.5406 24.0133 32.1478L23.3603 29.624H15.1941H7.02793L6.49185 30.4693Z" fill="white"/>
</g>
<g id="Vector_3">
<path d="M32.0206 27.756C33.7419 24.9971 34.7523 22.212 35.1532 19.121C35.2506 18.3458 35.3027 16.3557 35.2455 15.5815C34.9744 12.071 33.7519 9.02594 31.5854 6.48196C31.138 5.95014 29.9625 4.85631 29.3753 4.41981C28.8047 3.99807 28.1387 3.56653 27.588 3.27243C27.1597 3.04117 26.2323 2.60234 25.9782 2.51475L25.8302 2.46387L25.8504 2.57446C25.9143 2.88599 31.5229 28.4407 31.5312 28.4481C31.556 28.4702 31.721 28.2412 32.0206 27.756Z" fill="#0F0F0F"/>
<path d="M32.0206 27.756C33.7419 24.9971 34.7523 22.212 35.1532 19.121C35.2506 18.3458 35.3027 16.3557 35.2455 15.5815C34.9744 12.071 33.7519 9.02594 31.5854 6.48196C31.138 5.95014 29.9625 4.85631 29.3753 4.41981C28.8047 3.99807 28.1387 3.56653 27.588 3.27243C27.1597 3.04117 26.2323 2.60234 25.9782 2.51475L25.8302 2.46387L25.8504 2.57446C25.9143 2.88599 31.5229 28.4407 31.5312 28.4481C31.556 28.4702 31.721 28.2412 32.0206 27.756Z" fill="white"/>
</g>
<g id="Polygon 1">
<path d="M18.5359 10.7656L21.5988 21.4829H11.1392L18.5359 10.7656Z" fill="#0F0F0F"/>
<path d="M18.5359 10.7656L21.5988 21.4829H11.1392L18.5359 10.7656Z" fill="white"/>
</g>
</g>
</svg>
