<svg width="105" height="36" viewBox="0 0 105 36" fill="none" xmlns="http://www.w3.org/2000/svg">
<path d="M11.1841 11.2765C9.57187 14.219 8.23368 16.6543 8.2095 16.6905C8.17322 16.7589 8.27802 16.7629 10.2208 16.7629H12.2684L12.7279 15.9579L13.1834 15.1528H16.5853H19.9831L20.4628 15.8854C20.7248 16.292 20.9666 16.6543 20.9948 16.6945C21.0472 16.7589 21.1762 16.7629 23.0747 16.7549L25.0981 16.7428L21.6639 11.3409L18.2298 5.93501H16.1741H14.1185L11.1841 11.2765ZM17.5325 11.3007C18.0645 12.1379 18.4918 12.8303 18.4837 12.8423C18.4716 12.8504 17.5567 12.8544 16.4442 12.8504L14.4208 12.8383L15.3398 11.1678C15.8436 10.2501 16.2709 9.47321 16.291 9.44503C16.3112 9.4088 16.3596 9.44905 16.4442 9.58591C16.5127 9.69057 17.0045 10.4634 17.5325 11.3007Z" fill="#0F0F0F"/>
<path d="M11.1841 11.2765C9.57187 14.219 8.23368 16.6543 8.2095 16.6905C8.17322 16.7589 8.27802 16.7629 10.2208 16.7629H12.2684L12.7279 15.9579L13.1834 15.1528H16.5853H19.9831L20.4628 15.8854C20.7248 16.292 20.9666 16.6543 20.9948 16.6945C21.0472 16.7589 21.1762 16.7629 23.0747 16.7549L25.0981 16.7428L21.6639 11.3409L18.2298 5.93501H16.1741H14.1185L11.1841 11.2765ZM17.5325 11.3007C18.0645 12.1379 18.4918 12.8303 18.4837 12.8423C18.4716 12.8504 17.5567 12.8544 16.4442 12.8504L14.4208 12.8383L15.3398 11.1678C15.8436 10.2501 16.2709 9.47321 16.291 9.44503C16.3112 9.4088 16.3596 9.44905 16.4442 9.58591C16.5127 9.69057 17.0045 10.4634 17.5325 11.3007Z" fill="white"/>
<path d="M25.9485 6.06382C25.9485 6.13627 25.9928 8.38639 26.0493 11.0672C26.1057 13.744 26.15 16.1229 26.15 16.3483V16.7629H27.9437H29.7373V16.5335C29.7373 16.4087 29.7091 14.6658 29.6728 12.6652C29.6406 10.6647 29.6204 9.01835 29.6245 9.0103C29.6325 9.00225 31.7486 10.7452 34.3243 12.8786L39.0039 16.7629H41.0434H43.0789V16.2477C43.0789 15.9659 43.0346 13.5427 42.9782 10.8659C42.9217 8.18512 42.8774 5.98331 42.8774 5.96318C42.8774 5.94708 42.0712 5.93501 41.0837 5.93501H39.2901L39.3102 6.52672C39.3505 7.58939 39.4594 13.7923 39.4392 13.8124C39.4271 13.8205 37.311 12.0534 34.7314 9.88378L30.0477 5.93501H27.9961H25.9485V6.06382Z" fill="#0F0F0F"/>
<path d="M25.9485 6.06382C25.9485 6.13627 25.9928 8.38639 26.0493 11.0672C26.1057 13.744 26.15 16.1229 26.15 16.3483V16.7629H27.9437H29.7373V16.5335C29.7373 16.4087 29.7091 14.6658 29.6728 12.6652C29.6406 10.6647 29.6204 9.01835 29.6245 9.0103C29.6325 9.00225 31.7486 10.7452 34.3243 12.8786L39.0039 16.7629H41.0434H43.0789V16.2477C43.0789 15.9659 43.0346 13.5427 42.9782 10.8659C42.9217 8.18512 42.8774 5.98331 42.8774 5.96318C42.8774 5.94708 42.0712 5.93501 41.0837 5.93501H39.2901L39.3102 6.52672C39.3505 7.58939 39.4594 13.7923 39.4392 13.8124C39.4271 13.8205 37.311 12.0534 34.7314 9.88378L30.0477 5.93501H27.9961H25.9485V6.06382Z" fill="white"/>
<path d="M44.6184 8.70841C44.6829 11.3369 44.691 11.4899 44.7676 11.6428C44.9328 11.9608 45.3923 12.2265 45.9042 12.2949C46.0655 12.315 47.1538 12.3352 48.3186 12.3352C50.5798 12.3352 50.7814 12.3513 51.0877 12.5404C51.3618 12.7095 51.3578 12.6693 51.3981 14.8187L51.4343 16.7629H53.2199H55.0096L55.0055 16.0867C55.0055 15.7164 54.9894 14.863 54.9733 14.1868C54.9572 13.5105 54.9531 12.9148 54.9652 12.8625C54.9894 12.7176 55.2111 12.5243 55.4529 12.4398C55.6585 12.3633 55.8359 12.3593 58.0729 12.3352C60.4067 12.311 60.4792 12.311 60.7412 12.2225C61.0959 12.1057 61.374 11.9085 61.4949 11.6911L61.5917 11.518L61.5433 9.13911C61.5191 7.8309 61.499 6.57502 61.499 6.34558V5.93501H59.6973H57.8996L57.9238 6.78836C57.9399 7.25932 57.9641 8.09657 57.9762 8.65205L58.0003 9.65837L57.9036 9.79925C57.8472 9.87976 57.7101 9.98844 57.5691 10.0609L57.3312 10.1817L53.1998 10.1937C49.6367 10.2018 49.0401 10.1937 48.8628 10.1414C48.6088 10.0689 48.4073 9.93611 48.2944 9.77107C48.2138 9.65032 48.2098 9.57786 48.1816 8.46287C48.1695 7.8148 48.1453 6.98157 48.1332 6.60722L48.105 5.93501H46.3275H44.5499L44.6184 8.70841Z" fill="#0F0F0F"/>
<path d="M44.6184 8.70841C44.6829 11.3369 44.691 11.4899 44.7676 11.6428C44.9328 11.9608 45.3923 12.2265 45.9042 12.2949C46.0655 12.315 47.1538 12.3352 48.3186 12.3352C50.5798 12.3352 50.7814 12.3513 51.0877 12.5404C51.3618 12.7095 51.3578 12.6693 51.3981 14.8187L51.4343 16.7629H53.2199H55.0096L55.0055 16.0867C55.0055 15.7164 54.9894 14.863 54.9733 14.1868C54.9572 13.5105 54.9531 12.9148 54.9652 12.8625C54.9894 12.7176 55.2111 12.5243 55.4529 12.4398C55.6585 12.3633 55.8359 12.3593 58.0729 12.3352C60.4067 12.311 60.4792 12.311 60.7412 12.2225C61.0959 12.1057 61.374 11.9085 61.4949 11.6911L61.5917 11.518L61.5433 9.13911C61.5191 7.8309 61.499 6.57502 61.499 6.34558V5.93501H59.6973H57.8996L57.9238 6.78836C57.9399 7.25932 57.9641 8.09657 57.9762 8.65205L58.0003 9.65837L57.9036 9.79925C57.8472 9.87976 57.7101 9.98844 57.5691 10.0609L57.3312 10.1817L53.1998 10.1937C49.6367 10.2018 49.0401 10.1937 48.8628 10.1414C48.6088 10.0689 48.4073 9.93611 48.2944 9.77107C48.2138 9.65032 48.2098 9.57786 48.1816 8.46287C48.1695 7.8148 48.1453 6.98157 48.1332 6.60722L48.105 5.93501H46.3275H44.5499L44.6184 8.70841Z" fill="white"/>
<path d="M65.9007 11.1558C64.3247 14.0298 62.9865 16.4651 62.9301 16.5697L62.8213 16.7629H64.8729H66.9205L67.376 15.9579L67.8314 15.1528H71.2333H74.6312L75.1592 15.9579L75.6873 16.7629H77.7228H79.7583L79.6011 16.5093C79.5124 16.3725 77.9646 13.9372 76.1629 11.0994L72.8859 5.93903L70.8262 5.93501H68.7666L65.9007 11.1558ZM72.0959 11.1598C72.6723 12.0735 73.1479 12.8303 73.1479 12.8383C73.1479 12.8504 72.2289 12.8584 71.1084 12.8584C69.9355 12.8584 69.0769 12.8423 69.085 12.8222C69.093 12.8021 69.5163 12.0252 70.0241 11.0954C70.7214 9.82743 70.9633 9.41685 70.9955 9.44905C71.0237 9.47723 71.5155 10.2461 72.0959 11.1598Z" fill="#0F0F0F"/>
<path d="M65.9007 11.1558C64.3247 14.0298 62.9865 16.4651 62.9301 16.5697L62.8213 16.7629H64.8729H66.9205L67.376 15.9579L67.8314 15.1528H71.2333H74.6312L75.1592 15.9579L75.6873 16.7629H77.7228H79.7583L79.6011 16.5093C79.5124 16.3725 77.9646 13.9372 76.1629 11.0994L72.8859 5.93903L70.8262 5.93501H68.7666L65.9007 11.1558ZM72.0959 11.1598C72.6723 12.0735 73.1479 12.8303 73.1479 12.8383C73.1479 12.8504 72.2289 12.8584 71.1084 12.8584C69.9355 12.8584 69.0769 12.8423 69.085 12.8222C69.093 12.8021 69.5163 12.0252 70.0241 11.0954C70.7214 9.82743 70.9633 9.41685 70.9955 9.44905C71.0237 9.47723 71.5155 10.2461 72.0959 11.1598Z" fill="white"/>
<path d="M81.9751 5.99941C81.3988 6.1242 80.8465 6.50659 80.7014 6.88899C80.6329 7.0661 80.6329 7.24322 80.6974 10.9022C80.7377 13.0074 80.7821 15.1891 80.7941 15.7446L80.8183 16.7629H82.612H84.4056L84.3815 15.4225C84.3573 14.2029 84.3613 14.07 84.4258 13.9453C84.5225 13.7521 84.7926 13.5588 85.0385 13.5065C85.3246 13.4461 93.0958 13.4461 93.382 13.5065C93.4949 13.5307 93.6682 13.6071 93.773 13.6756C94.1075 13.901 94.1035 13.8688 94.1317 15.4064L94.1599 16.7629H95.9536H97.7432L97.715 15.2011L97.6868 13.6434L97.5094 13.273C97.3603 12.9671 97.2998 12.8826 97.1507 12.7779C96.8927 12.6008 96.5783 12.468 96.2801 12.4116C96.139 12.3875 95.9697 12.3513 95.9012 12.3311C95.7843 12.303 95.7843 12.303 95.9415 12.2989C96.5945 12.2828 97.3321 11.8843 97.5538 11.4295L97.6626 11.2081L97.6182 9.24377C97.5941 8.165 97.5618 7.21504 97.5538 7.13051C97.4933 6.68371 97.0862 6.30131 96.4171 6.06382L96.1027 5.95514L89.1699 5.94708C83.3375 5.94306 82.1968 5.95111 81.9751 5.99941ZM93.6238 8.37431C93.7891 8.46689 93.8697 8.54337 93.9382 8.67218C94.0229 8.84124 94.0269 8.8976 94.0269 9.75095C94.0269 10.7492 94.0188 10.7854 93.7609 10.9625C93.4586 11.1719 93.6158 11.1638 89.1659 11.1678C84.6394 11.1678 84.8329 11.1759 84.5266 10.9424C84.3008 10.7693 84.2847 10.7049 84.2565 9.7268C84.2283 8.71646 84.2444 8.63998 84.4903 8.45079C84.7926 8.22135 84.583 8.23343 89.1699 8.24148L93.4021 8.24953L93.6238 8.37431Z" fill="#0F0F0F"/>
<path d="M81.9751 5.99941C81.3988 6.1242 80.8465 6.50659 80.7014 6.88899C80.6329 7.0661 80.6329 7.24322 80.6974 10.9022C80.7377 13.0074 80.7821 15.1891 80.7941 15.7446L80.8183 16.7629H82.612H84.4056L84.3815 15.4225C84.3573 14.2029 84.3613 14.07 84.4258 13.9453C84.5225 13.7521 84.7926 13.5588 85.0385 13.5065C85.3246 13.4461 93.0958 13.4461 93.382 13.5065C93.4949 13.5307 93.6682 13.6071 93.773 13.6756C94.1075 13.901 94.1035 13.8688 94.1317 15.4064L94.1599 16.7629H95.9536H97.7432L97.715 15.2011L97.6868 13.6434L97.5094 13.273C97.3603 12.9671 97.2998 12.8826 97.1507 12.7779C96.8927 12.6008 96.5783 12.468 96.2801 12.4116C96.139 12.3875 95.9697 12.3513 95.9012 12.3311C95.7843 12.303 95.7843 12.303 95.9415 12.2989C96.5945 12.2828 97.3321 11.8843 97.5538 11.4295L97.6626 11.2081L97.6182 9.24377C97.5941 8.165 97.5618 7.21504 97.5538 7.13051C97.4933 6.68371 97.0862 6.30131 96.4171 6.06382L96.1027 5.95514L89.1699 5.94708C83.3375 5.94306 82.1968 5.95111 81.9751 5.99941ZM93.6238 8.37431C93.7891 8.46689 93.8697 8.54337 93.9382 8.67218C94.0229 8.84124 94.0269 8.8976 94.0269 9.75095C94.0269 10.7492 94.0188 10.7854 93.7609 10.9625C93.4586 11.1719 93.6158 11.1638 89.1659 11.1678C84.6394 11.1678 84.8329 11.1759 84.5266 10.9424C84.3008 10.7693 84.2847 10.7049 84.2565 9.7268C84.2283 8.71646 84.2444 8.63998 84.4903 8.45079C84.7926 8.22135 84.583 8.23343 89.1699 8.24148L93.4021 8.24953L93.6238 8.37431Z" fill="white"/>
<path d="M9.64452 18.2161C8.93512 18.2846 8.33455 18.6187 8.1048 19.0735L8 19.2788L8.06852 23.5255C8.10883 25.8601 8.1572 27.8365 8.17735 27.917C8.29021 28.3638 8.78195 28.7502 9.45508 28.9233C9.74932 28.9958 9.96698 28.9998 16.5531 28.9998C24.018 28.9998 23.5504 29.0159 24.0784 28.7583C24.4009 28.6013 24.6709 28.3598 24.7838 28.1223C24.8563 27.9734 24.8765 27.8687 24.8725 27.6312C24.8725 27.4662 24.8563 26.4921 24.8402 25.4656L24.812 23.606H23.0425H21.2731V24.9343V26.2586L21.1521 26.3955C21.0876 26.4719 20.9345 26.5766 20.8216 26.6289L20.608 26.7255H16.4765H12.3451L12.1153 26.6128C11.8493 26.484 11.6921 26.315 11.6639 26.1298C11.6518 26.0573 11.6236 24.89 11.6034 23.5335C11.5551 20.7963 11.551 20.8929 11.813 20.6877C12.1234 20.4542 11.7929 20.4663 18.5403 20.4663H24.7395V20.0114C24.7395 19.7659 24.7274 19.2466 24.7112 18.8642L24.6871 18.1719L17.327 18.1759C13.2802 18.1799 9.82187 18.196 9.64452 18.2161Z" fill="#0F0F0F"/>
<path d="M9.64452 18.2161C8.93512 18.2846 8.33455 18.6187 8.1048 19.0735L8 19.2788L8.06852 23.5255C8.10883 25.8601 8.1572 27.8365 8.17735 27.917C8.29021 28.3638 8.78195 28.7502 9.45508 28.9233C9.74932 28.9958 9.96698 28.9998 16.5531 28.9998C24.018 28.9998 23.5504 29.0159 24.0784 28.7583C24.4009 28.6013 24.6709 28.3598 24.7838 28.1223C24.8563 27.9734 24.8765 27.8687 24.8725 27.6312C24.8725 27.4662 24.8563 26.4921 24.8402 25.4656L24.812 23.606H23.0425H21.2731V24.9343V26.2586L21.1521 26.3955C21.0876 26.4719 20.9345 26.5766 20.8216 26.6289L20.608 26.7255H16.4765H12.3451L12.1153 26.6128C11.8493 26.484 11.6921 26.315 11.6639 26.1298C11.6518 26.0573 11.6236 24.89 11.6034 23.5335C11.5551 20.7963 11.551 20.8929 11.813 20.6877C12.1234 20.4542 11.7929 20.4663 18.5403 20.4663H24.7395V20.0114C24.7395 19.7659 24.7274 19.2466 24.7112 18.8642L24.6871 18.1719L17.327 18.1759C13.2802 18.1799 9.82187 18.196 9.64452 18.2161Z" fill="white"/>
<path d="M27.3593 18.2121C26.5613 18.2966 25.8962 18.7112 25.743 19.2184C25.7108 19.3311 25.7188 20.5266 25.7833 23.8917C25.8317 26.3793 25.868 28.5489 25.868 28.7059V28.9998H27.6415H29.419L29.411 27.6312C29.4069 26.0533 29.3989 26.1016 29.7778 25.8842L29.9994 25.7594L34.1027 25.7474C36.7307 25.7433 38.2624 25.7514 38.3551 25.7796C38.5808 25.8399 38.875 26.0412 38.9516 26.1901C39.0161 26.3069 39.0282 26.496 39.0524 27.6312C39.0685 28.3517 39.0846 28.9515 39.0846 28.9676C39.0886 28.9877 39.8867 28.9998 40.8621 28.9998H42.6357L42.6155 28.7663C42.6074 28.6415 42.5873 27.9411 42.5752 27.2125L42.555 25.8923L42.4019 25.5622C42.2326 25.2039 42.0754 25.0389 41.7449 24.8698C41.5232 24.7571 41.0032 24.6163 40.8057 24.6082C40.7372 24.6082 40.8097 24.58 40.9669 24.5519C41.7005 24.419 42.2487 24.097 42.4462 23.6784C42.5309 23.5013 42.5349 23.0021 42.4704 20.8084C42.4341 19.4478 42.422 19.3069 42.3454 19.1298C42.1923 18.7716 41.7368 18.4455 41.1564 18.2805L40.842 18.192L34.2518 18.1879C30.6282 18.1839 27.5246 18.196 27.3593 18.2121ZM38.4276 20.5789C38.5405 20.6313 38.6977 20.7359 38.7702 20.8124L38.9073 20.9533L38.9395 21.8952C38.9758 22.9659 38.9637 23.0464 38.6815 23.2316C38.347 23.4489 38.476 23.4449 34.1309 23.4449C29.7697 23.4449 29.9067 23.453 29.5762 23.2235C29.3183 23.0464 29.3021 22.9699 29.2941 21.9958C29.29 21.5208 29.29 21.0901 29.29 21.0418C29.2981 20.8526 29.6286 20.583 29.9591 20.5024C30.0277 20.4863 31.914 20.4783 34.151 20.4783L38.222 20.4863L38.4276 20.5789Z" fill="#0F0F0F"/>
<path d="M27.3593 18.2121C26.5613 18.2966 25.8962 18.7112 25.743 19.2184C25.7108 19.3311 25.7188 20.5266 25.7833 23.8917C25.8317 26.3793 25.868 28.5489 25.868 28.7059V28.9998H27.6415H29.419L29.411 27.6312C29.4069 26.0533 29.3989 26.1016 29.7778 25.8842L29.9994 25.7594L34.1027 25.7474C36.7307 25.7433 38.2624 25.7514 38.3551 25.7796C38.5808 25.8399 38.875 26.0412 38.9516 26.1901C39.0161 26.3069 39.0282 26.496 39.0524 27.6312C39.0685 28.3517 39.0846 28.9515 39.0846 28.9676C39.0886 28.9877 39.8867 28.9998 40.8621 28.9998H42.6357L42.6155 28.7663C42.6074 28.6415 42.5873 27.9411 42.5752 27.2125L42.555 25.8923L42.4019 25.5622C42.2326 25.2039 42.0754 25.0389 41.7449 24.8698C41.5232 24.7571 41.0032 24.6163 40.8057 24.6082C40.7372 24.6082 40.8097 24.58 40.9669 24.5519C41.7005 24.419 42.2487 24.097 42.4462 23.6784C42.5309 23.5013 42.5349 23.0021 42.4704 20.8084C42.4341 19.4478 42.422 19.3069 42.3454 19.1298C42.1923 18.7716 41.7368 18.4455 41.1564 18.2805L40.842 18.192L34.2518 18.1879C30.6282 18.1839 27.5246 18.196 27.3593 18.2121ZM38.4276 20.5789C38.5405 20.6313 38.6977 20.7359 38.7702 20.8124L38.9073 20.9533L38.9395 21.8952C38.9758 22.9659 38.9637 23.0464 38.6815 23.2316C38.347 23.4489 38.476 23.4449 34.1309 23.4449C29.7697 23.4449 29.9067 23.453 29.5762 23.2235C29.3183 23.0464 29.3021 22.9699 29.2941 21.9958C29.29 21.5208 29.29 21.0901 29.29 21.0418C29.2981 20.8526 29.6286 20.583 29.9591 20.5024C30.0277 20.4863 31.914 20.4783 34.151 20.4783L38.222 20.4863L38.4276 20.5789Z" fill="white"/>
<path d="M45.719 18.2121C44.9975 18.2845 44.3849 18.6307 44.1591 19.0896C44.0745 19.2707 44.0705 19.319 44.0785 20.0637C44.1067 22.2937 44.2115 27.7117 44.2277 27.8566C44.2881 28.3114 44.8121 28.7381 45.5255 28.9233C45.8238 28.9957 46.0374 28.9998 52.6115 28.9998C59.1856 28.9998 59.3992 28.9957 59.6974 28.9233C60.2577 28.7784 60.6568 28.5006 60.8381 28.1303L60.947 27.9049L60.8784 23.6904C60.8381 21.2954 60.7938 19.4036 60.7696 19.3029C60.689 18.9527 60.4472 18.6951 59.9796 18.4576C59.4193 18.1759 59.9393 18.196 52.6316 18.1879C49.0081 18.1839 45.8964 18.196 45.719 18.2121ZM56.8155 20.583C57.0654 20.6957 57.2549 20.8969 57.2831 21.0781C57.3234 21.3357 57.3838 26.1459 57.3516 26.2344C57.2992 26.3672 57.0211 26.6047 56.8397 26.6691C56.7107 26.7174 55.9489 26.7255 52.551 26.7255H48.4196L48.218 26.6329C47.9923 26.5283 47.8513 26.4115 47.7747 26.2626C47.7344 26.1861 47.7102 25.5501 47.6739 23.6019C47.6175 20.7238 47.6054 20.8889 47.9198 20.6796C48.2422 20.4662 48.1455 20.4702 52.5309 20.4783L56.6019 20.4863L56.8155 20.583Z" fill="#0F0F0F"/>
<path d="M45.719 18.2121C44.9975 18.2845 44.3849 18.6307 44.1591 19.0896C44.0745 19.2707 44.0705 19.319 44.0785 20.0637C44.1067 22.2937 44.2115 27.7117 44.2277 27.8566C44.2881 28.3114 44.8121 28.7381 45.5255 28.9233C45.8238 28.9957 46.0374 28.9998 52.6115 28.9998C59.1856 28.9998 59.3992 28.9957 59.6974 28.9233C60.2577 28.7784 60.6568 28.5006 60.8381 28.1303L60.947 27.9049L60.8784 23.6904C60.8381 21.2954 60.7938 19.4036 60.7696 19.3029C60.689 18.9527 60.4472 18.6951 59.9796 18.4576C59.4193 18.1759 59.9393 18.196 52.6316 18.1879C49.0081 18.1839 45.8964 18.196 45.719 18.2121ZM56.8155 20.583C57.0654 20.6957 57.2549 20.8969 57.2831 21.0781C57.3234 21.3357 57.3838 26.1459 57.3516 26.2344C57.2992 26.3672 57.0211 26.6047 56.8397 26.6691C56.7107 26.7174 55.9489 26.7255 52.551 26.7255H48.4196L48.218 26.6329C47.9923 26.5283 47.8513 26.4115 47.7747 26.2626C47.7344 26.1861 47.7102 25.5501 47.6739 23.6019C47.6175 20.7238 47.6054 20.8889 47.9198 20.6796C48.2422 20.4662 48.1455 20.4702 52.5309 20.4783L56.6019 20.4863L56.8155 20.583Z" fill="white"/>
<path d="M62.41 19.1661C62.4221 19.7176 62.4665 21.9073 62.5068 24.0367C62.5753 27.8687 62.5793 27.909 62.668 28.0901C62.7809 28.3236 63.0751 28.5893 63.4016 28.7503C63.9377 29.0119 63.4903 28.9998 70.9712 28.9998C78.5006 28.9998 78.0128 29.0159 78.557 28.7301C78.8794 28.5611 79.1938 28.2431 79.2664 28.0096C79.3027 27.8848 79.2946 26.8584 79.2301 23.1833C79.1858 20.6152 79.1414 18.4376 79.1294 18.341L79.1092 18.1719H77.3558H75.6065V18.7032C75.6065 18.9971 75.6347 20.5508 75.667 22.1569C75.7476 26.2023 75.7476 26.1781 75.6388 26.3472C75.5823 26.4317 75.4534 26.5283 75.3042 26.6048L75.0624 26.7256L71.0357 26.7376C66.6584 26.7497 66.7269 26.7537 66.3843 26.5243C66.0699 26.315 66.0981 26.633 66.0135 22.3058C65.9691 20.1765 65.9329 18.3732 65.9329 18.3007V18.1719H64.1594H62.3859L62.41 19.1661Z" fill="#0F0F0F"/>
<path d="M62.41 19.1661C62.4221 19.7176 62.4665 21.9073 62.5068 24.0367C62.5753 27.8687 62.5793 27.909 62.668 28.0901C62.7809 28.3236 63.0751 28.5893 63.4016 28.7503C63.9377 29.0119 63.4903 28.9998 70.9712 28.9998C78.5006 28.9998 78.0128 29.0159 78.557 28.7301C78.8794 28.5611 79.1938 28.2431 79.2664 28.0096C79.3027 27.8848 79.2946 26.8584 79.2301 23.1833C79.1858 20.6152 79.1414 18.4376 79.1294 18.341L79.1092 18.1719H77.3558H75.6065V18.7032C75.6065 18.9971 75.6347 20.5508 75.667 22.1569C75.7476 26.2023 75.7476 26.1781 75.6388 26.3472C75.5823 26.4317 75.4534 26.5283 75.3042 26.6048L75.0624 26.7256L71.0357 26.7376C66.6584 26.7497 66.7269 26.7537 66.3843 26.5243C66.0699 26.315 66.0981 26.633 66.0135 22.3058C65.9691 20.1765 65.9329 18.3732 65.9329 18.3007V18.1719H64.1594H62.3859L62.41 19.1661Z" fill="white"/>
<path d="M82.4789 18.2121C82.108 18.2523 81.8863 18.3167 81.6002 18.4616C81.189 18.6669 80.8988 18.993 80.8303 19.319C80.8142 19.4076 80.9835 28.9354 81.0036 28.9877C81.0077 28.9957 81.7977 28.9998 82.7691 28.9998H84.5264L84.4982 27.3695L84.47 25.7393L90.3266 25.7272C95.6834 25.7192 96.2034 25.7111 96.4049 25.6507C97.07 25.4455 97.5133 25.0671 97.6141 24.6324C97.6302 24.5639 97.6222 23.3443 97.5939 21.9153C97.5496 19.4398 97.5456 19.311 97.465 19.1379C97.2997 18.7716 96.8241 18.4375 96.2235 18.2644C95.9978 18.2 95.5262 18.192 89.3713 18.1879C85.7357 18.1839 82.6361 18.196 82.4789 18.2121ZM93.5955 20.5991C93.7245 20.6635 93.8736 20.7762 93.9341 20.8567L94.0469 21.0016L94.059 21.9515C94.0751 22.8975 94.0751 22.9015 93.9784 23.0424C93.926 23.1189 93.7849 23.2356 93.664 23.304L93.4423 23.4248L89.331 23.4369C85.5865 23.4449 85.2036 23.4409 85.0061 23.3805C84.7239 23.2919 84.4781 23.0706 84.4337 22.8612C84.4136 22.7727 84.3934 22.3178 84.3934 21.8509C84.3934 21.0338 84.3975 20.9976 84.4861 20.8687C84.5909 20.7077 84.7804 20.591 85.0343 20.5226C85.1794 20.4823 86.1548 20.4743 89.2907 20.4783L93.3617 20.4863L93.5955 20.5991Z" fill="#0F0F0F"/>
<path d="M82.4789 18.2121C82.108 18.2523 81.8863 18.3167 81.6002 18.4616C81.189 18.6669 80.8988 18.993 80.8303 19.319C80.8142 19.4076 80.9835 28.9354 81.0036 28.9877C81.0077 28.9957 81.7977 28.9998 82.7691 28.9998H84.5264L84.4982 27.3695L84.47 25.7393L90.3266 25.7272C95.6834 25.7192 96.2034 25.7111 96.4049 25.6507C97.07 25.4455 97.5133 25.0671 97.6141 24.6324C97.6302 24.5639 97.6222 23.3443 97.5939 21.9153C97.5496 19.4398 97.5456 19.311 97.465 19.1379C97.2997 18.7716 96.8241 18.4375 96.2235 18.2644C95.9978 18.2 95.5262 18.192 89.3713 18.1879C85.7357 18.1839 82.6361 18.196 82.4789 18.2121ZM93.5955 20.5991C93.7245 20.6635 93.8736 20.7762 93.9341 20.8567L94.0469 21.0016L94.059 21.9515C94.0751 22.8975 94.0751 22.9015 93.9784 23.0424C93.926 23.1189 93.7849 23.2356 93.664 23.304L93.4423 23.4248L89.331 23.4369C85.5865 23.4449 85.2036 23.4409 85.0061 23.3805C84.7239 23.2919 84.4781 23.0706 84.4337 22.8612C84.4136 22.7727 84.3934 22.3178 84.3934 21.8509C84.3934 21.0338 84.3975 20.9976 84.4861 20.8687C84.5909 20.7077 84.7804 20.591 85.0343 20.5226C85.1794 20.4823 86.1548 20.4743 89.2907 20.4783L93.3617 20.4863L93.5955 20.5991Z" fill="white"/>
</svg>
