<svg width="24" height="24" viewBox="0 0 24 24" fill="none" xmlns="http://www.w3.org/2000/svg">
<g id="cash_fill">
<path id="Vector" fill-rule="evenodd" clip-rule="evenodd" d="M20 5C21.1046 5 22 5.89543 22 7V17C22 18.1046 21.1046 19 20 19H4C2.89543 19 2 18.1046 2 17V7C2 5.89543 2.89543 5 4 5H20ZM4.1251 14L4 14.0027V16.0087C4.04076 16.003 4.08252 16 4.1251 16C4.60823 16 5 16.3917 5 16.875L4.99778 16.9382L4.99123 17H6.99731L7 16.875C7 15.2872 5.71292 14 4.1251 14ZM19.8749 14C18.3438 14 17.0923 15.1969 17.0049 16.7061L17 16.875C17 16.9169 17.0009 16.9585 17.0027 17H19.0087C19.003 16.9593 19 16.9175 19 16.875C19 16.3917 19.3917 16 19.8749 16C19.9175 16 19.9592 16.003 20 16.0087V14.0027L19.8749 14ZM12 8C9.79086 8 8 9.79086 8 12C8 14.2091 9.79086 16 12 16C14.2091 16 16 14.2091 16 12C16 9.79086 14.2091 8 12 8ZM12 10C13.1046 10 14 10.8954 14 12C14 13.1046 13.1046 14 12 14C10.8954 14 10 13.1046 10 12C10 10.8954 10.8954 10 12 10ZM7 7H5V7.12497C5 7.60828 4.60823 7.99997 4.1251 7.99997C4.08252 7.99997 4.04076 7.99698 4 7.9912V9.99728L4.1251 9.99997C5.71292 9.99997 7 8.71273 7 7.12497V7ZM19.0087 7H17.0027L17 7.12497C17 8.65602 18.1968 9.90764 19.706 9.99509L19.9376 9.9993L20 9.99728V7.9912C19.9592 7.99698 19.9175 7.99997 19.8749 7.99997C19.3917 7.99997 19 7.60828 19 7.12497L19.0022 7.0618L19.0087 7Z" fill="white"/>
</g>
</svg>
